<svg xmlns="http://www.w3.org/2000/svg" version="1.1" xmlns:xlink="http://www.w3.org/1999/xlink" xmlns:svgjs="http://svgjs.dev/svgjs" width="1440" height="560" preserveAspectRatio="none" viewBox="0 0 1440 560"><g mask="url(&quot;#SvgjsMask1248&quot;)" fill="none"><rect width="1440" height="560" x="0" y="0" fill="#0e2a47"></rect><g mask="url(&quot;#SvgjsMask1249&quot;)"><path d="M12 252L36 276L60 276L84 276L108 276M204 252L228 276M228 252L252 228M-12 276L12 252L36 252L60 252L84 252L108 252L132 252L156 252L180 252L204 252L228 252L252 252L276 252L300 252" stroke="#dd1133" stroke-width="4"></path><path d="M294 252 a6 6 0 1 0 12 0 a6 6 0 1 0 -12 0zM102 276 a6 6 0 1 0 12 0 a6 6 0 1 0 -12 0zM222 276 a6 6 0 1 0 12 0 a6 6 0 1 0 -12 0zM246 228 a6 6 0 1 0 12 0 a6 6 0 1 0 -12 0z" fill="#dd1133"></path><path d="M204 324L228 348L252 348L276 348L300 348M180 324L204 300L228 300L252 300M108 300L132 300L156 300L180 300L204 276M-12 300L12 300L36 300L60 300L84 300L108 300L132 324L156 324L180 324L204 324L228 324" stroke="#dd1133" stroke-width="4"></path><path d="M222 324 a6 6 0 1 0 12 0 a6 6 0 1 0 -12 0zM294 348 a6 6 0 1 0 12 0 a6 6 0 1 0 -12 0zM246 300 a6 6 0 1 0 12 0 a6 6 0 1 0 -12 0zM198 276 a6 6 0 1 0 12 0 a6 6 0 1 0 -12 0z" fill="#dd1133"></path><path d="M60 204L84 228L108 228L132 228M132 180L156 204L180 204L204 228L228 228M180 180L204 180L228 180M276 228L300 204L324 204L348 204L372 204M-12 252L12 228L36 204L60 204L84 204L108 204L132 180L156 180L180 180L204 204L228 204L252 204L276 228L300 228L324 228L348 228L372 228L396 228L420 228" stroke="#3a7cc3" stroke-width="4"></path><path d="M414 228 a6 6 0 1 0 12 0 a6 6 0 1 0 -12 0zM126 228 a6 6 0 1 0 12 0 a6 6 0 1 0 -12 0zM222 228 a6 6 0 1 0 12 0 a6 6 0 1 0 -12 0zM222 180 a6 6 0 1 0 12 0 a6 6 0 1 0 -12 0zM366 204 a6 6 0 1 0 12 0 a6 6 0 1 0 -12 0z" fill="#3a7cc3"></path><path d="M420 396L444 372L468 372M300 372L324 396M468 396L492 420L516 420L540 444L564 444L588 444L612 444M372 396L396 372L420 372L444 348L468 348L492 324M228 372L252 396M-12 324L12 324L36 324L60 324L84 324L108 348L132 372L156 372L180 372L204 372L228 372L252 372L276 372L300 372L324 372L348 396L372 396L396 396L420 396L444 396L468 396L492 396" stroke="#3a7cc3" stroke-width="4"></path><path d="M486 396 a6 6 0 1 0 12 0 a6 6 0 1 0 -12 0zM462 372 a6 6 0 1 0 12 0 a6 6 0 1 0 -12 0zM318 396 a6 6 0 1 0 12 0 a6 6 0 1 0 -12 0zM606 444 a6 6 0 1 0 12 0 a6 6 0 1 0 -12 0zM486 324 a6 6 0 1 0 12 0 a6 6 0 1 0 -12 0zM246 396 a6 6 0 1 0 12 0 a6 6 0 1 0 -12 0z" fill="#3a7cc3"></path><path d="M-12 228L12 204L36 180L60 180L84 180L108 180L132 156L156 156L180 156L204 156L228 156L252 156L276 156" stroke="#dd1133" stroke-width="4"></path><path d="M270 156 a6 6 0 1 0 12 0 a6 6 0 1 0 -12 0z" fill="#dd1133"></path><path d="M180 396L204 396L228 396L252 420L276 420M-12 348L12 348L36 348L60 348L84 348L108 372L132 396L156 396L180 396L204 420" stroke="#dd1133" stroke-width="4"></path><path d="M198 420 a6 6 0 1 0 12 0 a6 6 0 1 0 -12 0zM270 420 a6 6 0 1 0 12 0 a6 6 0 1 0 -12 0z" fill="#dd1133"></path><path d="M300 132L324 156L348 156L372 156M372 132L396 108L420 84L444 84L468 84M348 132L372 108M-12 204L12 180L36 156L60 156L84 156L108 156L132 132L156 132L180 132L204 132L228 132L252 132L276 132L300 132L324 132L348 132L372 132L396 132" stroke="#dd1133" stroke-width="4"></path><path d="M390 132 a6 6 0 1 0 12 0 a6 6 0 1 0 -12 0zM366 156 a6 6 0 1 0 12 0 a6 6 0 1 0 -12 0zM462 84 a6 6 0 1 0 12 0 a6 6 0 1 0 -12 0zM366 108 a6 6 0 1 0 12 0 a6 6 0 1 0 -12 0z" fill="#dd1133"></path><path d="M372 468L396 492L420 492L444 492L468 492L492 492M348 468L372 492M492 468L516 444M228 444L252 468L276 468M300 468L324 444L348 444M564 468L588 492L612 492L636 492M-12 372L12 372L36 372L60 372L84 372L108 396L132 420L156 420L180 420L204 444L228 444L252 444L276 444L300 468L324 468L348 468L372 468L396 468L420 468L444 468L468 468L492 468L516 468L540 468L564 468L588 468" stroke="#3a7cc3" stroke-width="4"></path><path d="M582 468 a6 6 0 1 0 12 0 a6 6 0 1 0 -12 0zM486 492 a6 6 0 1 0 12 0 a6 6 0 1 0 -12 0zM366 492 a6 6 0 1 0 12 0 a6 6 0 1 0 -12 0zM510 444 a6 6 0 1 0 12 0 a6 6 0 1 0 -12 0zM270 468 a6 6 0 1 0 12 0 a6 6 0 1 0 -12 0zM342 444 a6 6 0 1 0 12 0 a6 6 0 1 0 -12 0zM630 492 a6 6 0 1 0 12 0 a6 6 0 1 0 -12 0z" fill="#3a7cc3"></path><path d="M252 108L276 84M-12 180L12 156L36 132L60 132L84 132L108 132L132 108L156 108L180 108L204 108L228 108L252 108L276 108L300 108L324 108" stroke="#3a7cc3" stroke-width="4"></path><path d="M318 108 a6 6 0 1 0 12 0 a6 6 0 1 0 -12 0zM270 84 a6 6 0 1 0 12 0 a6 6 0 1 0 -12 0z" fill="#3a7cc3"></path><path d="M132 444L156 468L180 468L204 468M36 396L60 420L84 420M12 396L36 420L60 444L84 444M-12 396L12 396L36 396L60 396L84 396L108 420L132 444L156 444" stroke="#dd1133" stroke-width="4"></path><path d="M150 444 a6 6 0 1 0 12 0 a6 6 0 1 0 -12 0zM198 468 a6 6 0 1 0 12 0 a6 6 0 1 0 -12 0zM78 420 a6 6 0 1 0 12 0 a6 6 0 1 0 -12 0zM78 444 a6 6 0 1 0 12 0 a6 6 0 1 0 -12 0z" fill="#dd1133"></path><path d="M84 108L108 84L132 60L156 60L180 60M60 108L84 84L108 60M-12 156L12 132L36 108L60 108L84 108L108 108L132 84L156 84L180 84L204 84L228 84" stroke="#dd1133" stroke-width="4"></path><path d="M222 84 a6 6 0 1 0 12 0 a6 6 0 1 0 -12 0zM174 60 a6 6 0 1 0 12 0 a6 6 0 1 0 -12 0zM102 60 a6 6 0 1 0 12 0 a6 6 0 1 0 -12 0z" fill="#dd1133"></path></g></g><defs><mask id="SvgjsMask1248"><rect width="1440" height="560" fill="#ffffff"></rect></mask><mask id="SvgjsMask1249"><rect width="1440" height="560" fill="white"></rect><path d="M297 252 a3 3 0 1 0 6 0 a3 3 0 1 0 -6 0zM105 276 a3 3 0 1 0 6 0 a3 3 0 1 0 -6 0zM225 276 a3 3 0 1 0 6 0 a3 3 0 1 0 -6 0zM249 228 a3 3 0 1 0 6 0 a3 3 0 1 0 -6 0z" fill="black"></path><path d="M225 324 a3 3 0 1 0 6 0 a3 3 0 1 0 -6 0zM297 348 a3 3 0 1 0 6 0 a3 3 0 1 0 -6 0zM249 300 a3 3 0 1 0 6 0 a3 3 0 1 0 -6 0zM201 276 a3 3 0 1 0 6 0 a3 3 0 1 0 -6 0z" fill="black"></path><path d="M417 228 a3 3 0 1 0 6 0 a3 3 0 1 0 -6 0zM129 228 a3 3 0 1 0 6 0 a3 3 0 1 0 -6 0zM225 228 a3 3 0 1 0 6 0 a3 3 0 1 0 -6 0zM225 180 a3 3 0 1 0 6 0 a3 3 0 1 0 -6 0zM369 204 a3 3 0 1 0 6 0 a3 3 0 1 0 -6 0z" fill="black"></path><path d="M489 396 a3 3 0 1 0 6 0 a3 3 0 1 0 -6 0zM465 372 a3 3 0 1 0 6 0 a3 3 0 1 0 -6 0zM321 396 a3 3 0 1 0 6 0 a3 3 0 1 0 -6 0zM609 444 a3 3 0 1 0 6 0 a3 3 0 1 0 -6 0zM489 324 a3 3 0 1 0 6 0 a3 3 0 1 0 -6 0zM249 396 a3 3 0 1 0 6 0 a3 3 0 1 0 -6 0z" fill="black"></path><path d="M273 156 a3 3 0 1 0 6 0 a3 3 0 1 0 -6 0z" fill="black"></path><path d="M201 420 a3 3 0 1 0 6 0 a3 3 0 1 0 -6 0zM273 420 a3 3 0 1 0 6 0 a3 3 0 1 0 -6 0z" fill="black"></path><path d="M393 132 a3 3 0 1 0 6 0 a3 3 0 1 0 -6 0zM369 156 a3 3 0 1 0 6 0 a3 3 0 1 0 -6 0zM465 84 a3 3 0 1 0 6 0 a3 3 0 1 0 -6 0zM369 108 a3 3 0 1 0 6 0 a3 3 0 1 0 -6 0z" fill="black"></path><path d="M585 468 a3 3 0 1 0 6 0 a3 3 0 1 0 -6 0zM489 492 a3 3 0 1 0 6 0 a3 3 0 1 0 -6 0zM369 492 a3 3 0 1 0 6 0 a3 3 0 1 0 -6 0zM513 444 a3 3 0 1 0 6 0 a3 3 0 1 0 -6 0zM273 468 a3 3 0 1 0 6 0 a3 3 0 1 0 -6 0zM345 444 a3 3 0 1 0 6 0 a3 3 0 1 0 -6 0zM633 492 a3 3 0 1 0 6 0 a3 3 0 1 0 -6 0z" fill="black"></path><path d="M321 108 a3 3 0 1 0 6 0 a3 3 0 1 0 -6 0zM273 84 a3 3 0 1 0 6 0 a3 3 0 1 0 -6 0z" fill="black"></path><path d="M153 444 a3 3 0 1 0 6 0 a3 3 0 1 0 -6 0zM201 468 a3 3 0 1 0 6 0 a3 3 0 1 0 -6 0zM81 420 a3 3 0 1 0 6 0 a3 3 0 1 0 -6 0zM81 444 a3 3 0 1 0 6 0 a3 3 0 1 0 -6 0z" fill="black"></path><path d="M225 84 a3 3 0 1 0 6 0 a3 3 0 1 0 -6 0zM177 60 a3 3 0 1 0 6 0 a3 3 0 1 0 -6 0zM105 60 a3 3 0 1 0 6 0 a3 3 0 1 0 -6 0z" fill="black"></path></mask></defs></svg>