<svg xmlns="http://www.w3.org/2000/svg" version="1.1" xmlns:xlink="http://www.w3.org/1999/xlink" xmlns:svgjs="http://svgjs.dev/svgjs" width="1440" height="560" preserveAspectRatio="none" viewBox="0 0 1440 560"><g mask="url(&quot;#SvgjsMask1021&quot;)" fill="none"><path d="M-91.79 347.86L-91.79 347.86" stroke="#132e65" stroke-width="1.5"></path><path d="M-91.79 347.86L41.98 393.29" stroke="#132e65" stroke-width="1.5"></path><path d="M-91.79 347.86L-90.64 521.03" stroke="#132e65" stroke-width="1.5"></path><path d="M-91.79 347.86L47.3 561.34" stroke="#132e65" stroke-width="1.5"></path><path d="M-91.79 347.86L-53.13 672.91" stroke="#132e65" stroke-width="1.5"></path><path d="M-91.79 347.86L203.85 495.43" stroke="#132e65" stroke-width="1.5"></path><path d="M-91.79 347.86L246.38 366.07" stroke="#132e65" stroke-width="1.5"></path><path d="M-90.64 521.03L-90.64 521.03" stroke="#132e65" stroke-width="1.5"></path><path d="M-90.64 521.03L47.3 561.34" stroke="#132e65" stroke-width="1.5"></path><path d="M-90.64 521.03L-53.13 672.91" stroke="#132e65" stroke-width="1.5"></path><path d="M-90.64 521.03L41.98 393.29" stroke="#132e65" stroke-width="1.5"></path><path d="M-90.64 521.03L98.23 711.97" stroke="#132e65" stroke-width="1.5"></path><path d="M-90.64 521.03L203.85 495.43" stroke="#132e65" stroke-width="1.5"></path><path d="M-53.13 672.91L-53.13 672.91" stroke="#132e65" stroke-width="1.5"></path><path d="M-53.13 672.91L47.3 561.34" stroke="#132e65" stroke-width="1.5"></path><path d="M-53.13 672.91L98.23 711.97" stroke="#132e65" stroke-width="1.5"></path><path d="M-53.13 672.91L206.83 662.52" stroke="#132e65" stroke-width="1.5"></path><path d="M41.98 393.29L41.98 393.29" stroke="#132e65" stroke-width="1.5"></path><path d="M41.98 393.29L47.3 561.34" stroke="#132e65" stroke-width="1.5"></path><path d="M47.3 561.34L47.3 561.34" stroke="#132e65" stroke-width="1.5"></path><path d="M47.3 561.34L98.23 711.97" stroke="#132e65" stroke-width="1.5"></path><path d="M98.23 711.97L98.23 711.97" stroke="#132e65" stroke-width="1.5"></path><path d="M98.23 711.97L206.83 662.52" stroke="#132e65" stroke-width="1.5"></path><path d="M98.23 711.97L203.85 495.43" stroke="#132e65" stroke-width="1.5"></path><path d="M246.38 366.07L246.38 366.07" stroke="#132e65" stroke-width="1.5"></path><path d="M246.38 366.07L376.82 346.94" stroke="#132e65" stroke-width="1.5"></path><path d="M246.38 366.07L203.85 495.43" stroke="#132e65" stroke-width="1.5"></path><path d="M246.38 366.07L41.98 393.29" stroke="#132e65" stroke-width="1.5"></path><path d="M246.38 366.07L375.67 537.01" stroke="#132e65" stroke-width="1.5"></path><path d="M203.85 495.43L203.85 495.43" stroke="#132e65" stroke-width="1.5"></path><path d="M203.85 495.43L206.83 662.52" stroke="#132e65" stroke-width="1.5"></path><path d="M203.85 495.43L47.3 561.34" stroke="#132e65" stroke-width="1.5"></path><path d="M206.83 662.52L206.83 662.52" stroke="#132e65" stroke-width="1.5"></path><path d="M206.83 662.52L355.14 684.31" stroke="#132e65" stroke-width="1.5"></path><path d="M206.83 662.52L47.3 561.34" stroke="#132e65" stroke-width="1.5"></path><path d="M206.83 662.52L375.67 537.01" stroke="#132e65" stroke-width="1.5"></path><path d="M376.82 346.94L376.82 346.94" stroke="#132e65" stroke-width="1.5"></path><path d="M376.82 346.94L513.16 396.14" stroke="#132e65" stroke-width="1.5"></path><path d="M376.82 346.94L375.67 537.01" stroke="#132e65" stroke-width="1.5"></path><path d="M375.67 537.01L375.67 537.01" stroke="#132e65" stroke-width="1.5"></path><path d="M375.67 537.01L355.14 684.31" stroke="#132e65" stroke-width="1.5"></path><path d="M375.67 537.01L203.85 495.43" stroke="#132e65" stroke-width="1.5"></path><path d="M355.14 684.31L355.14 684.31" stroke="#132e65" stroke-width="1.5"></path><path d="M355.14 684.31L203.85 495.43" stroke="#132e65" stroke-width="1.5"></path><path d="M355.14 684.31L98.23 711.97" stroke="#132e65" stroke-width="1.5"></path><path d="M355.14 684.31L555.87 489.37" stroke="#132e65" stroke-width="1.5"></path><path d="M355.14 684.31L513.16 396.14" stroke="#132e65" stroke-width="1.5"></path><path d="M513.16 396.14L513.16 396.14" stroke="#132e65" stroke-width="1.5"></path><path d="M513.16 396.14L555.87 489.37" stroke="#132e65" stroke-width="1.5"></path><path d="M513.16 396.14L697.3 410.51" stroke="#132e65" stroke-width="1.5"></path><path d="M513.16 396.14L375.67 537.01" stroke="#132e65" stroke-width="1.5"></path><path d="M513.16 396.14L246.38 366.07" stroke="#132e65" stroke-width="1.5"></path><path d="M555.87 489.37L555.87 489.37" stroke="#132e65" stroke-width="1.5"></path><path d="M555.87 489.37L697.3 410.51" stroke="#132e65" stroke-width="1.5"></path><path d="M555.87 489.37L375.67 537.01" stroke="#132e65" stroke-width="1.5"></path><path d="M697.3 410.51L697.3 410.51" stroke="#132e65" stroke-width="1.5"></path><path d="M697.3 410.51L854.97 353.25" stroke="#132e65" stroke-width="1.5"></path><path d="M697.3 410.51L814.09 256.61" stroke="#132e65" stroke-width="1.5"></path><path d="M710.55 705.76L710.55 705.76" stroke="#132e65" stroke-width="1.5"></path><path d="M710.55 705.76L835.22 684.27" stroke="#132e65" stroke-width="1.5"></path><path d="M710.55 705.76L939.86 697.47" stroke="#132e65" stroke-width="1.5"></path><path d="M710.55 705.76L555.87 489.37" stroke="#132e65" stroke-width="1.5"></path><path d="M710.55 705.76L697.3 410.51" stroke="#132e65" stroke-width="1.5"></path><path d="M710.55 705.76L1008.96 540.86" stroke="#132e65" stroke-width="1.5"></path><path d="M710.55 705.76L355.14 684.31" stroke="#132e65" stroke-width="1.5"></path><path d="M814.09 256.61L814.09 256.61" stroke="#132e65" stroke-width="1.5"></path><path d="M814.09 256.61L854.97 353.25" stroke="#132e65" stroke-width="1.5"></path><path d="M814.09 256.61L987.63 255.03" stroke="#132e65" stroke-width="1.5"></path><path d="M814.09 256.61L956.28 366.01" stroke="#132e65" stroke-width="1.5"></path><path d="M854.97 353.25L854.97 353.25" stroke="#132e65" stroke-width="1.5"></path><path d="M854.97 353.25L956.28 366.01" stroke="#132e65" stroke-width="1.5"></path><path d="M854.97 353.25L987.63 255.03" stroke="#132e65" stroke-width="1.5"></path><path d="M854.97 353.25L1008.96 540.86" stroke="#132e65" stroke-width="1.5"></path><path d="M835.22 684.27L835.22 684.27" stroke="#132e65" stroke-width="1.5"></path><path d="M835.22 684.27L939.86 697.47" stroke="#132e65" stroke-width="1.5"></path><path d="M1005.75 -45.6L1005.75 -45.6" stroke="#132e65" stroke-width="1.5"></path><path d="M1005.75 -45.6L1096.17 -62.43" stroke="#132e65" stroke-width="1.5"></path><path d="M1005.75 -45.6L987.59 106.91" stroke="#132e65" stroke-width="1.5"></path><path d="M1005.75 -45.6L1148.21 51.58" stroke="#132e65" stroke-width="1.5"></path><path d="M987.59 106.91L987.59 106.91" stroke="#132e65" stroke-width="1.5"></path><path d="M987.59 106.91L987.63 255.03" stroke="#132e65" stroke-width="1.5"></path><path d="M987.63 255.03L987.63 255.03" stroke="#132e65" stroke-width="1.5"></path><path d="M987.63 255.03L1092.46 233.8" stroke="#132e65" stroke-width="1.5"></path><path d="M987.63 255.03L956.28 366.01" stroke="#132e65" stroke-width="1.5"></path><path d="M987.63 255.03L1112.55 357.17" stroke="#132e65" stroke-width="1.5"></path><path d="M956.28 366.01L956.28 366.01" stroke="#132e65" stroke-width="1.5"></path><path d="M1008.96 540.86L1008.96 540.86" stroke="#132e65" stroke-width="1.5"></path><path d="M1008.96 540.86L1105.48 529.54" stroke="#132e65" stroke-width="1.5"></path><path d="M1008.96 540.86L939.86 697.47" stroke="#132e65" stroke-width="1.5"></path><path d="M1008.96 540.86L956.28 366.01" stroke="#132e65" stroke-width="1.5"></path><path d="M1008.96 540.86L1112.55 357.17" stroke="#132e65" stroke-width="1.5"></path><path d="M1008.96 540.86L835.22 684.27" stroke="#132e65" stroke-width="1.5"></path><path d="M939.86 697.47L939.86 697.47" stroke="#132e65" stroke-width="1.5"></path><path d="M1096.17 -62.43L1096.17 -62.43" stroke="#132e65" stroke-width="1.5"></path><path d="M1096.17 -62.43L1148.21 51.58" stroke="#132e65" stroke-width="1.5"></path><path d="M1096.17 -62.43L1288.9 -105.41" stroke="#132e65" stroke-width="1.5"></path><path d="M1096.17 -62.43L987.59 106.91" stroke="#132e65" stroke-width="1.5"></path><path d="M1096.17 -62.43L1266.15 48.34" stroke="#132e65" stroke-width="1.5"></path><path d="M1096.17 -62.43L1092.46 233.8" stroke="#132e65" stroke-width="1.5"></path><path d="M1148.21 51.58L1148.21 51.58" stroke="#132e65" stroke-width="1.5"></path><path d="M1148.21 51.58L1266.15 48.34" stroke="#132e65" stroke-width="1.5"></path><path d="M1148.21 51.58L987.59 106.91" stroke="#132e65" stroke-width="1.5"></path><path d="M1092.46 233.8L1092.46 233.8" stroke="#132e65" stroke-width="1.5"></path><path d="M1092.46 233.8L1112.55 357.17" stroke="#132e65" stroke-width="1.5"></path><path d="M1092.46 233.8L987.59 106.91" stroke="#132e65" stroke-width="1.5"></path><path d="M1112.55 357.17L1112.55 357.17" stroke="#132e65" stroke-width="1.5"></path><path d="M1112.55 357.17L956.28 366.01" stroke="#132e65" stroke-width="1.5"></path><path d="M1112.55 357.17L1105.48 529.54" stroke="#132e65" stroke-width="1.5"></path><path d="M1112.55 357.17L1296.36 410.9" stroke="#132e65" stroke-width="1.5"></path><path d="M1105.48 529.54L1105.48 529.54" stroke="#132e65" stroke-width="1.5"></path><path d="M1105.48 529.54L1241.57 530.47" stroke="#132e65" stroke-width="1.5"></path><path d="M1288.9 -105.41L1288.9 -105.41" stroke="#132e65" stroke-width="1.5"></path><path d="M1288.9 -105.41L1266.15 48.34" stroke="#132e65" stroke-width="1.5"></path><path d="M1288.9 -105.41L1148.21 51.58" stroke="#132e65" stroke-width="1.5"></path><path d="M1288.9 -105.41L1425.45 81.26" stroke="#132e65" stroke-width="1.5"></path><path d="M1288.9 -105.41L1005.75 -45.6" stroke="#132e65" stroke-width="1.5"></path><path d="M1266.15 48.34L1266.15 48.34" stroke="#132e65" stroke-width="1.5"></path><path d="M1266.15 48.34L1311.33 199.91" stroke="#132e65" stroke-width="1.5"></path><path d="M1266.15 48.34L1425.45 81.26" stroke="#132e65" stroke-width="1.5"></path><path d="M1266.15 48.34L1404.76 198.07" stroke="#132e65" stroke-width="1.5"></path><path d="M1311.33 199.91L1311.33 199.91" stroke="#132e65" stroke-width="1.5"></path><path d="M1311.33 199.91L1404.76 198.07" stroke="#132e65" stroke-width="1.5"></path><path d="M1311.33 199.91L1425.45 81.26" stroke="#132e65" stroke-width="1.5"></path><path d="M1296.36 410.9L1296.36 410.9" stroke="#132e65" stroke-width="1.5"></path><path d="M1296.36 410.9L1241.57 530.47" stroke="#132e65" stroke-width="1.5"></path><path d="M1296.36 410.9L1423.66 355.38" stroke="#132e65" stroke-width="1.5"></path><path d="M1296.36 410.9L1447.69 506.84" stroke="#132e65" stroke-width="1.5"></path><path d="M1241.57 530.47L1241.57 530.47" stroke="#132e65" stroke-width="1.5"></path><path d="M1241.57 530.47L1291.57 707.61" stroke="#132e65" stroke-width="1.5"></path><path d="M1241.57 530.47L1447.69 506.84" stroke="#132e65" stroke-width="1.5"></path><path d="M1291.57 707.61L1291.57 707.61" stroke="#132e65" stroke-width="1.5"></path><path d="M1291.57 707.61L1411.13 682.41" stroke="#132e65" stroke-width="1.5"></path><path d="M1291.57 707.61L1447.69 506.84" stroke="#132e65" stroke-width="1.5"></path><path d="M1291.57 707.61L1105.48 529.54" stroke="#132e65" stroke-width="1.5"></path><path d="M1291.57 707.61L1551.52 708.28" stroke="#132e65" stroke-width="1.5"></path><path d="M1291.57 707.61L1296.36 410.9" stroke="#132e65" stroke-width="1.5"></path><path d="M1425.45 81.26L1425.45 81.26" stroke="#132e65" stroke-width="1.5"></path><path d="M1425.45 81.26L1404.76 198.07" stroke="#132e65" stroke-width="1.5"></path><path d="M1425.45 81.26L1607.71 82.61" stroke="#132e65" stroke-width="1.5"></path><path d="M1425.45 81.26L1585.66 252.48" stroke="#132e65" stroke-width="1.5"></path><path d="M1404.76 198.07L1404.76 198.07" stroke="#132e65" stroke-width="1.5"></path><path d="M1423.66 355.38L1423.66 355.38" stroke="#132e65" stroke-width="1.5"></path><path d="M1423.66 355.38L1542.75 380.72" stroke="#132e65" stroke-width="1.5"></path><path d="M1423.66 355.38L1447.69 506.84" stroke="#132e65" stroke-width="1.5"></path><path d="M1423.66 355.38L1404.76 198.07" stroke="#132e65" stroke-width="1.5"></path><path d="M1423.66 355.38L1311.33 199.91" stroke="#132e65" stroke-width="1.5"></path><path d="M1447.69 506.84L1447.69 506.84" stroke="#132e65" stroke-width="1.5"></path><path d="M1447.69 506.84L1582.24 517.9" stroke="#132e65" stroke-width="1.5"></path><path d="M1411.13 682.41L1411.13 682.41" stroke="#132e65" stroke-width="1.5"></path><path d="M1411.13 682.41L1551.52 708.28" stroke="#132e65" stroke-width="1.5"></path><path d="M1411.13 682.41L1447.69 506.84" stroke="#132e65" stroke-width="1.5"></path><path d="M1411.13 682.41L1241.57 530.47" stroke="#132e65" stroke-width="1.5"></path><path d="M1603.52 -102.99L1603.52 -102.99" stroke="#132e65" stroke-width="1.5"></path><path d="M1603.52 -102.99L1607.71 82.61" stroke="#132e65" stroke-width="1.5"></path><path d="M1603.52 -102.99L1425.45 81.26" stroke="#132e65" stroke-width="1.5"></path><path d="M1603.52 -102.99L1288.9 -105.41" stroke="#132e65" stroke-width="1.5"></path><path d="M1603.52 -102.99L1585.66 252.48" stroke="#132e65" stroke-width="1.5"></path><path d="M1603.52 -102.99L1404.76 198.07" stroke="#132e65" stroke-width="1.5"></path><path d="M1603.52 -102.99L1266.15 48.34" stroke="#132e65" stroke-width="1.5"></path><path d="M1607.71 82.61L1607.71 82.61" stroke="#132e65" stroke-width="1.5"></path><path d="M1607.71 82.61L1585.66 252.48" stroke="#132e65" stroke-width="1.5"></path><path d="M1585.66 252.48L1585.66 252.48" stroke="#132e65" stroke-width="1.5"></path><path d="M1585.66 252.48L1542.75 380.72" stroke="#132e65" stroke-width="1.5"></path><path d="M1585.66 252.48L1404.76 198.07" stroke="#132e65" stroke-width="1.5"></path><path d="M1585.66 252.48L1423.66 355.38" stroke="#132e65" stroke-width="1.5"></path><path d="M1542.75 380.72L1542.75 380.72" stroke="#132e65" stroke-width="1.5"></path><path d="M1542.75 380.72L1582.24 517.9" stroke="#132e65" stroke-width="1.5"></path><path d="M1542.75 380.72L1447.69 506.84" stroke="#132e65" stroke-width="1.5"></path><path d="M1542.75 380.72L1404.76 198.07" stroke="#132e65" stroke-width="1.5"></path><path d="M1582.24 517.9L1582.24 517.9" stroke="#132e65" stroke-width="1.5"></path><path d="M1582.24 517.9L1551.52 708.28" stroke="#132e65" stroke-width="1.5"></path><path d="M1582.24 517.9L1423.66 355.38" stroke="#132e65" stroke-width="1.5"></path><path d="M1582.24 517.9L1411.13 682.41" stroke="#132e65" stroke-width="1.5"></path><path d="M1551.52 708.28L1551.52 708.28" stroke="#132e65" stroke-width="1.5"></path><circle r="5" cx="-91.79" cy="347.86" fill="#132e65"></circle><circle r="5" cx="-90.64" cy="521.03" fill="#132e65"></circle><circle r="5" cx="-53.13" cy="672.91" fill="#132e65"></circle><circle r="5" cx="41.98" cy="393.29" fill="#132e65"></circle><circle r="5" cx="47.3" cy="561.34" fill="#132e65"></circle><circle r="5" cx="98.23" cy="711.97" fill="#132e65"></circle><circle r="5" cx="246.38" cy="366.07" fill="#132e65"></circle><circle r="5" cx="203.85" cy="495.43" fill="#132e65"></circle><circle r="5" cx="206.83" cy="662.52" fill="#132e65"></circle><circle r="5" cx="376.82" cy="346.94" fill="#132e65"></circle><circle r="5" cx="375.67" cy="537.01" fill="#132e65"></circle><circle r="5" cx="355.14" cy="684.31" fill="#132e65"></circle><circle r="5" cx="513.16" cy="396.14" fill="#132e65"></circle><circle r="5" cx="555.87" cy="489.37" fill="#132e65"></circle><circle r="5" cx="697.3" cy="410.51" fill="#132e65"></circle><circle r="5" cx="710.55" cy="705.76" fill="#132e65"></circle><circle r="5" cx="814.09" cy="256.61" fill="#132e65"></circle><circle r="5" cx="854.97" cy="353.25" fill="#132e65"></circle><circle r="5" cx="835.22" cy="684.27" fill="#132e65"></circle><circle r="5" cx="1005.75" cy="-45.6" fill="#132e65"></circle><circle r="5" cx="987.59" cy="106.91" fill="#132e65"></circle><circle r="5" cx="987.63" cy="255.03" fill="#132e65"></circle><circle r="5" cx="956.28" cy="366.01" fill="#132e65"></circle><circle r="5" cx="1008.96" cy="540.86" fill="#132e65"></circle><circle r="5" cx="939.86" cy="697.47" fill="#132e65"></circle><circle r="5" cx="1096.17" cy="-62.43" fill="#132e65"></circle><circle r="5" cx="1148.21" cy="51.58" fill="#132e65"></circle><circle r="5" cx="1092.46" cy="233.8" fill="#132e65"></circle><circle r="5" cx="1112.55" cy="357.17" fill="#132e65"></circle><circle r="5" cx="1105.48" cy="529.54" fill="#132e65"></circle><circle r="5" cx="1288.9" cy="-105.41" fill="#132e65"></circle><circle r="5" cx="1266.15" cy="48.34" fill="#132e65"></circle><circle r="5" cx="1311.33" cy="199.91" fill="#132e65"></circle><circle r="5" cx="1296.36" cy="410.9" fill="#132e65"></circle><circle r="5" cx="1241.57" cy="530.47" fill="#132e65"></circle><circle r="5" cx="1291.57" cy="707.61" fill="#132e65"></circle><circle r="5" cx="1425.45" cy="81.26" fill="#132e65"></circle><circle r="5" cx="1404.76" cy="198.07" fill="#132e65"></circle><circle r="5" cx="1423.66" cy="355.38" fill="#132e65"></circle><circle r="5" cx="1447.69" cy="506.84" fill="#132e65"></circle><circle r="5" cx="1411.13" cy="682.41" fill="#132e65"></circle><circle r="5" cx="1603.52" cy="-102.99" fill="#132e65"></circle><circle r="5" cx="1607.71" cy="82.61" fill="#132e65"></circle><circle r="5" cx="1585.66" cy="252.48" fill="#132e65"></circle><circle r="5" cx="1542.75" cy="380.72" fill="#132e65"></circle><circle r="5" cx="1582.24" cy="517.9" fill="#132e65"></circle><circle r="5" cx="1551.52" cy="708.28" fill="#132e65"></circle><path d="M-104.73 653.8L-104.73 653.8" stroke="hsl(228.5, 77.2%, 51.5%)" stroke-width="1.5"></path><path d="M-104.73 653.8L-48.36 548.84" stroke="hsl(228.5, 77.2%, 51.5%)" stroke-width="1.5"></path><path d="M-104.73 653.8L61.75 691.41" stroke="hsl(228.5, 77.2%, 51.5%)" stroke-width="1.5"></path><path d="M-104.73 653.8L52.8 523.82" stroke="hsl(228.5, 77.2%, 51.5%)" stroke-width="1.5"></path><path d="M410.5 558.33L410.5 558.33" stroke="hsl(228.5, 77.2%, 51.5%)" stroke-width="1.5"></path><path d="M410.5 558.33L351.8 639.85" stroke="hsl(228.5, 77.2%, 51.5%)" stroke-width="1.5"></path><path d="M410.5 558.33L531.32 679.46" stroke="hsl(228.5, 77.2%, 51.5%)" stroke-width="1.5"></path><path d="M410.5 558.33L227.42 676.71" stroke="hsl(228.5, 77.2%, 51.5%)" stroke-width="1.5"></path><path d="M531.32 679.46L531.32 679.46" stroke="hsl(228.5, 77.2%, 51.5%)" stroke-width="1.5"></path><path d="M531.32 679.46L672.21 650.82" stroke="hsl(228.5, 77.2%, 51.5%)" stroke-width="1.5"></path><path d="M827.2 361.28L827.2 361.28" stroke="hsl(228.5, 77.2%, 51.5%)" stroke-width="1.5"></path><path d="M827.2 361.28L938.91 341.26" stroke="hsl(228.5, 77.2%, 51.5%)" stroke-width="1.5"></path><path d="M827.2 361.28L677.94 405.49" stroke="hsl(228.5, 77.2%, 51.5%)" stroke-width="1.5"></path><path d="M827.2 361.28L813.59 551.31" stroke="hsl(228.5, 77.2%, 51.5%)" stroke-width="1.5"></path><path d="M827.2 361.28L683.41 488.99" stroke="hsl(228.5, 77.2%, 51.5%)" stroke-width="1.5"></path><path d="M827.2 361.28L984 524.87" stroke="hsl(228.5, 77.2%, 51.5%)" stroke-width="1.5"></path><path d="M827.2 361.28L1088.8 254.4" stroke="hsl(228.5, 77.2%, 51.5%)" stroke-width="1.5"></path><path d="M813.59 551.31L813.59 551.31" stroke="hsl(228.5, 77.2%, 51.5%)" stroke-width="1.5"></path><path d="M813.59 551.31L838.63 660.57" stroke="hsl(228.5, 77.2%, 51.5%)" stroke-width="1.5"></path><path d="M813.59 551.31L683.41 488.99" stroke="hsl(228.5, 77.2%, 51.5%)" stroke-width="1.5"></path><path d="M963.22 698.38L963.22 698.38" stroke="hsl(228.5, 77.2%, 51.5%)" stroke-width="1.5"></path><path d="M963.22 698.38L838.63 660.57" stroke="hsl(228.5, 77.2%, 51.5%)" stroke-width="1.5"></path><path d="M963.22 698.38L1121.64 676.36" stroke="hsl(228.5, 77.2%, 51.5%)" stroke-width="1.5"></path><path d="M1088.8 254.4L1088.8 254.4" stroke="hsl(228.5, 77.2%, 51.5%)" stroke-width="1.5"></path><path d="M1088.8 254.4L1138.38 360.46" stroke="hsl(228.5, 77.2%, 51.5%)" stroke-width="1.5"></path><path d="M1088.8 254.4L938.91 341.26" stroke="hsl(228.5, 77.2%, 51.5%)" stroke-width="1.5"></path><path d="M1088.8 254.4L1276.65 196.37" stroke="hsl(228.5, 77.2%, 51.5%)" stroke-width="1.5"></path><path d="M1088.8 254.4L1259.04 380.22" stroke="hsl(228.5, 77.2%, 51.5%)" stroke-width="1.5"></path><path d="M1088.8 254.4L1141 510.48" stroke="hsl(228.5, 77.2%, 51.5%)" stroke-width="1.5"></path><path d="M1141 510.48L1141 510.48" stroke="hsl(228.5, 77.2%, 51.5%)" stroke-width="1.5"></path><path d="M1141 510.48L1281.42 524.14" stroke="hsl(228.5, 77.2%, 51.5%)" stroke-width="1.5"></path><path d="M1141 510.48L1138.38 360.46" stroke="hsl(228.5, 77.2%, 51.5%)" stroke-width="1.5"></path><path d="M1276.65 196.37L1276.65 196.37" stroke="hsl(228.5, 77.2%, 51.5%)" stroke-width="1.5"></path><path d="M1276.65 196.37L1309.58 52.27" stroke="hsl(228.5, 77.2%, 51.5%)" stroke-width="1.5"></path><path d="M1276.65 196.37L1430.09 255.84" stroke="hsl(228.5, 77.2%, 51.5%)" stroke-width="1.5"></path><path d="M1276.65 196.37L1419.48 79.47" stroke="hsl(228.5, 77.2%, 51.5%)" stroke-width="1.5"></path><path d="M1395.8 -95.94L1395.8 -95.94" stroke="hsl(228.5, 77.2%, 51.5%)" stroke-width="1.5"></path><path d="M1395.8 -95.94L1290 -51.05" stroke="hsl(228.5, 77.2%, 51.5%)" stroke-width="1.5"></path><path d="M1395.8 -95.94L1547.16 -105.49" stroke="hsl(228.5, 77.2%, 51.5%)" stroke-width="1.5"></path><path d="M1424.63 503.38L1424.63 503.38" stroke="hsl(228.5, 77.2%, 51.5%)" stroke-width="1.5"></path><path d="M1424.63 503.38L1281.42 524.14" stroke="hsl(228.5, 77.2%, 51.5%)" stroke-width="1.5"></path><path d="M-48.36 548.84L-48.36 548.84" stroke="hsl(228.5, 77.2%, 51.5%)" stroke-width="1.5"></path><path d="M-48.36 548.84L52.8 523.82" stroke="hsl(228.5, 77.2%, 51.5%)" stroke-width="1.5"></path><path d="M52.8 523.82L52.8 523.82" stroke="hsl(228.5, 77.2%, 51.5%)" stroke-width="1.5"></path><path d="M52.8 523.82L192.01 531.58" stroke="hsl(228.5, 77.2%, 51.5%)" stroke-width="1.5"></path><path d="M52.8 523.82L61.75 691.41" stroke="hsl(228.5, 77.2%, 51.5%)" stroke-width="1.5"></path><path d="M61.75 691.41L61.75 691.41" stroke="hsl(228.5, 77.2%, 51.5%)" stroke-width="1.5"></path><path d="M61.75 691.41L227.42 676.71" stroke="hsl(228.5, 77.2%, 51.5%)" stroke-width="1.5"></path><path d="M61.75 691.41L-48.36 548.84" stroke="hsl(228.5, 77.2%, 51.5%)" stroke-width="1.5"></path><path d="M61.75 691.41L192.01 531.58" stroke="hsl(228.5, 77.2%, 51.5%)" stroke-width="1.5"></path><path d="M192.01 531.58L192.01 531.58" stroke="hsl(228.5, 77.2%, 51.5%)" stroke-width="1.5"></path><path d="M192.01 531.58L227.42 676.71" stroke="hsl(228.5, 77.2%, 51.5%)" stroke-width="1.5"></path><path d="M192.01 531.58L351.8 639.85" stroke="hsl(228.5, 77.2%, 51.5%)" stroke-width="1.5"></path><path d="M192.01 531.58L410.5 558.33" stroke="hsl(228.5, 77.2%, 51.5%)" stroke-width="1.5"></path><path d="M192.01 531.58L-48.36 548.84" stroke="hsl(228.5, 77.2%, 51.5%)" stroke-width="1.5"></path><path d="M227.42 676.71L227.42 676.71" stroke="hsl(228.5, 77.2%, 51.5%)" stroke-width="1.5"></path><path d="M227.42 676.71L351.8 639.85" stroke="hsl(228.5, 77.2%, 51.5%)" stroke-width="1.5"></path><path d="M351.8 639.85L351.8 639.85" stroke="hsl(228.5, 77.2%, 51.5%)" stroke-width="1.5"></path><path d="M351.8 639.85L531.32 679.46" stroke="hsl(228.5, 77.2%, 51.5%)" stroke-width="1.5"></path><path d="M351.8 639.85L61.75 691.41" stroke="hsl(228.5, 77.2%, 51.5%)" stroke-width="1.5"></path><path d="M351.8 639.85L672.21 650.82" stroke="hsl(228.5, 77.2%, 51.5%)" stroke-width="1.5"></path><path d="M677.94 405.49L677.94 405.49" stroke="hsl(228.5, 77.2%, 51.5%)" stroke-width="1.5"></path><path d="M677.94 405.49L683.41 488.99" stroke="hsl(228.5, 77.2%, 51.5%)" stroke-width="1.5"></path><path d="M677.94 405.49L813.59 551.31" stroke="hsl(228.5, 77.2%, 51.5%)" stroke-width="1.5"></path><path d="M683.41 488.99L683.41 488.99" stroke="hsl(228.5, 77.2%, 51.5%)" stroke-width="1.5"></path><path d="M683.41 488.99L672.21 650.82" stroke="hsl(228.5, 77.2%, 51.5%)" stroke-width="1.5"></path><path d="M672.21 650.82L672.21 650.82" stroke="hsl(228.5, 77.2%, 51.5%)" stroke-width="1.5"></path><path d="M672.21 650.82L838.63 660.57" stroke="hsl(228.5, 77.2%, 51.5%)" stroke-width="1.5"></path><path d="M672.21 650.82L813.59 551.31" stroke="hsl(228.5, 77.2%, 51.5%)" stroke-width="1.5"></path><path d="M838.63 660.57L838.63 660.57" stroke="hsl(228.5, 77.2%, 51.5%)" stroke-width="1.5"></path><path d="M838.63 660.57L984 524.87" stroke="hsl(228.5, 77.2%, 51.5%)" stroke-width="1.5"></path><path d="M938.91 341.26L938.91 341.26" stroke="hsl(228.5, 77.2%, 51.5%)" stroke-width="1.5"></path><path d="M938.91 341.26L984 524.87" stroke="hsl(228.5, 77.2%, 51.5%)" stroke-width="1.5"></path><path d="M938.91 341.26L1138.38 360.46" stroke="hsl(228.5, 77.2%, 51.5%)" stroke-width="1.5"></path><path d="M938.91 341.26L813.59 551.31" stroke="hsl(228.5, 77.2%, 51.5%)" stroke-width="1.5"></path><path d="M984 524.87L984 524.87" stroke="hsl(228.5, 77.2%, 51.5%)" stroke-width="1.5"></path><path d="M984 524.87L1141 510.48" stroke="hsl(228.5, 77.2%, 51.5%)" stroke-width="1.5"></path><path d="M984 524.87L813.59 551.31" stroke="hsl(228.5, 77.2%, 51.5%)" stroke-width="1.5"></path><path d="M984 524.87L963.22 698.38" stroke="hsl(228.5, 77.2%, 51.5%)" stroke-width="1.5"></path><path d="M1138.38 360.46L1138.38 360.46" stroke="hsl(228.5, 77.2%, 51.5%)" stroke-width="1.5"></path><path d="M1138.38 360.46L1259.04 380.22" stroke="hsl(228.5, 77.2%, 51.5%)" stroke-width="1.5"></path><path d="M1138.38 360.46L1276.65 196.37" stroke="hsl(228.5, 77.2%, 51.5%)" stroke-width="1.5"></path><path d="M1138.38 360.46L1281.42 524.14" stroke="hsl(228.5, 77.2%, 51.5%)" stroke-width="1.5"></path><path d="M1121.64 676.36L1121.64 676.36" stroke="hsl(228.5, 77.2%, 51.5%)" stroke-width="1.5"></path><path d="M1121.64 676.36L1141 510.48" stroke="hsl(228.5, 77.2%, 51.5%)" stroke-width="1.5"></path><path d="M1290 -51.05L1290 -51.05" stroke="hsl(228.5, 77.2%, 51.5%)" stroke-width="1.5"></path><path d="M1290 -51.05L1309.58 52.27" stroke="hsl(228.5, 77.2%, 51.5%)" stroke-width="1.5"></path><path d="M1290 -51.05L1419.48 79.47" stroke="hsl(228.5, 77.2%, 51.5%)" stroke-width="1.5"></path><path d="M1309.58 52.27L1309.58 52.27" stroke="hsl(228.5, 77.2%, 51.5%)" stroke-width="1.5"></path><path d="M1309.58 52.27L1419.48 79.47" stroke="hsl(228.5, 77.2%, 51.5%)" stroke-width="1.5"></path><path d="M1309.58 52.27L1395.8 -95.94" stroke="hsl(228.5, 77.2%, 51.5%)" stroke-width="1.5"></path><path d="M1309.58 52.27L1430.09 255.84" stroke="hsl(228.5, 77.2%, 51.5%)" stroke-width="1.5"></path><path d="M1309.58 52.27L1559.72 46.75" stroke="hsl(228.5, 77.2%, 51.5%)" stroke-width="1.5"></path><path d="M1259.04 380.22L1259.04 380.22" stroke="hsl(228.5, 77.2%, 51.5%)" stroke-width="1.5"></path><path d="M1259.04 380.22L1281.42 524.14" stroke="hsl(228.5, 77.2%, 51.5%)" stroke-width="1.5"></path><path d="M1259.04 380.22L1141 510.48" stroke="hsl(228.5, 77.2%, 51.5%)" stroke-width="1.5"></path><path d="M1259.04 380.22L1276.65 196.37" stroke="hsl(228.5, 77.2%, 51.5%)" stroke-width="1.5"></path><path d="M1259.04 380.22L1450.85 356.84" stroke="hsl(228.5, 77.2%, 51.5%)" stroke-width="1.5"></path><path d="M1259.04 380.22L1424.63 503.38" stroke="hsl(228.5, 77.2%, 51.5%)" stroke-width="1.5"></path><path d="M1281.42 524.14L1281.42 524.14" stroke="hsl(228.5, 77.2%, 51.5%)" stroke-width="1.5"></path><path d="M1291.19 670.33L1291.19 670.33" stroke="hsl(228.5, 77.2%, 51.5%)" stroke-width="1.5"></path><path d="M1291.19 670.33L1427.87 655.49" stroke="hsl(228.5, 77.2%, 51.5%)" stroke-width="1.5"></path><path d="M1291.19 670.33L1281.42 524.14" stroke="hsl(228.5, 77.2%, 51.5%)" stroke-width="1.5"></path><path d="M1291.19 670.33L1121.64 676.36" stroke="hsl(228.5, 77.2%, 51.5%)" stroke-width="1.5"></path><path d="M1419.48 79.47L1419.48 79.47" stroke="hsl(228.5, 77.2%, 51.5%)" stroke-width="1.5"></path><path d="M1419.48 79.47L1559.72 46.75" stroke="hsl(228.5, 77.2%, 51.5%)" stroke-width="1.5"></path><path d="M1419.48 79.47L1430.09 255.84" stroke="hsl(228.5, 77.2%, 51.5%)" stroke-width="1.5"></path><path d="M1419.48 79.47L1395.8 -95.94" stroke="hsl(228.5, 77.2%, 51.5%)" stroke-width="1.5"></path><path d="M1430.09 255.84L1430.09 255.84" stroke="hsl(228.5, 77.2%, 51.5%)" stroke-width="1.5"></path><path d="M1430.09 255.84L1450.85 356.84" stroke="hsl(228.5, 77.2%, 51.5%)" stroke-width="1.5"></path><path d="M1430.09 255.84L1560.86 206.72" stroke="hsl(228.5, 77.2%, 51.5%)" stroke-width="1.5"></path><path d="M1430.09 255.84L1560.53 384.47" stroke="hsl(228.5, 77.2%, 51.5%)" stroke-width="1.5"></path><path d="M1450.85 356.84L1450.85 356.84" stroke="hsl(228.5, 77.2%, 51.5%)" stroke-width="1.5"></path><path d="M1427.87 655.49L1427.87 655.49" stroke="hsl(228.5, 77.2%, 51.5%)" stroke-width="1.5"></path><path d="M1427.87 655.49L1566.64 708.03" stroke="hsl(228.5, 77.2%, 51.5%)" stroke-width="1.5"></path><path d="M1427.87 655.49L1424.63 503.38" stroke="hsl(228.5, 77.2%, 51.5%)" stroke-width="1.5"></path><path d="M1427.87 655.49L1281.42 524.14" stroke="hsl(228.5, 77.2%, 51.5%)" stroke-width="1.5"></path><path d="M1547.16 -105.49L1547.16 -105.49" stroke="hsl(228.5, 77.2%, 51.5%)" stroke-width="1.5"></path><path d="M1547.16 -105.49L1559.72 46.75" stroke="hsl(228.5, 77.2%, 51.5%)" stroke-width="1.5"></path><path d="M1547.16 -105.49L1419.48 79.47" stroke="hsl(228.5, 77.2%, 51.5%)" stroke-width="1.5"></path><path d="M1547.16 -105.49L1290 -51.05" stroke="hsl(228.5, 77.2%, 51.5%)" stroke-width="1.5"></path><path d="M1547.16 -105.49L1309.58 52.27" stroke="hsl(228.5, 77.2%, 51.5%)" stroke-width="1.5"></path><path d="M1547.16 -105.49L1560.86 206.72" stroke="hsl(228.5, 77.2%, 51.5%)" stroke-width="1.5"></path><path d="M1559.72 46.75L1559.72 46.75" stroke="hsl(228.5, 77.2%, 51.5%)" stroke-width="1.5"></path><path d="M1559.72 46.75L1560.86 206.72" stroke="hsl(228.5, 77.2%, 51.5%)" stroke-width="1.5"></path><path d="M1559.72 46.75L1395.8 -95.94" stroke="hsl(228.5, 77.2%, 51.5%)" stroke-width="1.5"></path><path d="M1559.72 46.75L1430.09 255.84" stroke="hsl(228.5, 77.2%, 51.5%)" stroke-width="1.5"></path><path d="M1560.86 206.72L1560.86 206.72" stroke="hsl(228.5, 77.2%, 51.5%)" stroke-width="1.5"></path><path d="M1560.86 206.72L1560.53 384.47" stroke="hsl(228.5, 77.2%, 51.5%)" stroke-width="1.5"></path><path d="M1560.86 206.72L1450.85 356.84" stroke="hsl(228.5, 77.2%, 51.5%)" stroke-width="1.5"></path><path d="M1560.53 384.47L1560.53 384.47" stroke="hsl(228.5, 77.2%, 51.5%)" stroke-width="1.5"></path><path d="M1560.53 384.47L1450.85 356.84" stroke="hsl(228.5, 77.2%, 51.5%)" stroke-width="1.5"></path><path d="M1560.53 384.47L1601.12 542.1" stroke="hsl(228.5, 77.2%, 51.5%)" stroke-width="1.5"></path><path d="M1560.53 384.47L1424.63 503.38" stroke="hsl(228.5, 77.2%, 51.5%)" stroke-width="1.5"></path><path d="M1601.12 542.1L1601.12 542.1" stroke="hsl(228.5, 77.2%, 51.5%)" stroke-width="1.5"></path><path d="M1601.12 542.1L1566.64 708.03" stroke="hsl(228.5, 77.2%, 51.5%)" stroke-width="1.5"></path><path d="M1601.12 542.1L1424.63 503.38" stroke="hsl(228.5, 77.2%, 51.5%)" stroke-width="1.5"></path><path d="M1601.12 542.1L1427.87 655.49" stroke="hsl(228.5, 77.2%, 51.5%)" stroke-width="1.5"></path><path d="M1601.12 542.1L1450.85 356.84" stroke="hsl(228.5, 77.2%, 51.5%)" stroke-width="1.5"></path><path d="M1601.12 542.1L1281.42 524.14" stroke="hsl(228.5, 77.2%, 51.5%)" stroke-width="1.5"></path><path d="M1566.64 708.03L1566.64 708.03" stroke="hsl(228.5, 77.2%, 51.5%)" stroke-width="1.5"></path><path d="M1566.64 708.03L1424.63 503.38" stroke="hsl(228.5, 77.2%, 51.5%)" stroke-width="1.5"></path><path d="M1566.64 708.03L1291.19 670.33" stroke="hsl(228.5, 77.2%, 51.5%)" stroke-width="1.5"></path><path d="M1566.64 708.03L1560.53 384.47" stroke="hsl(228.5, 77.2%, 51.5%)" stroke-width="1.5"></path><path d="M1566.64 708.03L1281.42 524.14" stroke="hsl(228.5, 77.2%, 51.5%)" stroke-width="1.5"></path><circle r="25" cx="-104.73" cy="653.8" fill="url(&quot;#SvgjsRadialGradient1022&quot;)"></circle><circle r="25" cx="410.5" cy="558.33" fill="url(&quot;#SvgjsRadialGradient1022&quot;)"></circle><circle r="25" cx="531.32" cy="679.46" fill="url(&quot;#SvgjsRadialGradient1022&quot;)"></circle><circle r="25" cx="827.2" cy="361.28" fill="url(&quot;#SvgjsRadialGradient1022&quot;)"></circle><circle r="25" cx="813.59" cy="551.31" fill="url(&quot;#SvgjsRadialGradient1022&quot;)"></circle><circle r="25" cx="963.22" cy="698.38" fill="url(&quot;#SvgjsRadialGradient1022&quot;)"></circle><circle r="25" cx="1088.8" cy="254.4" fill="url(&quot;#SvgjsRadialGradient1022&quot;)"></circle><circle r="25" cx="1141" cy="510.48" fill="url(&quot;#SvgjsRadialGradient1022&quot;)"></circle><circle r="25" cx="1276.65" cy="196.37" fill="url(&quot;#SvgjsRadialGradient1022&quot;)"></circle><circle r="25" cx="1395.8" cy="-95.94" fill="url(&quot;#SvgjsRadialGradient1022&quot;)"></circle><circle r="25" cx="1424.63" cy="503.38" fill="url(&quot;#SvgjsRadialGradient1022&quot;)"></circle><circle r="5" cx="-48.36" cy="548.84" fill="#8b9ad9"></circle><circle r="5" cx="52.8" cy="523.82" fill="#8b9ad9"></circle><circle r="5" cx="61.75" cy="691.41" fill="#8b9ad9"></circle><circle r="5" cx="192.01" cy="531.58" fill="#8b9ad9"></circle><circle r="5" cx="227.42" cy="676.71" fill="#8b9ad9"></circle><circle r="5" cx="351.8" cy="639.85" fill="#8b9ad9"></circle><circle r="5" cx="677.94" cy="405.49" fill="#8b9ad9"></circle><circle r="5" cx="683.41" cy="488.99" fill="#8b9ad9"></circle><circle r="5" cx="672.21" cy="650.82" fill="#8b9ad9"></circle><circle r="5" cx="838.63" cy="660.57" fill="#8b9ad9"></circle><circle r="5" cx="938.91" cy="341.26" fill="#8b9ad9"></circle><circle r="5" cx="984" cy="524.87" fill="#8b9ad9"></circle><circle r="5" cx="1138.38" cy="360.46" fill="#8b9ad9"></circle><circle r="5" cx="1121.64" cy="676.36" fill="#8b9ad9"></circle><circle r="5" cx="1290" cy="-51.05" fill="#8b9ad9"></circle><circle r="5" cx="1309.58" cy="52.27" fill="#8b9ad9"></circle><circle r="5" cx="1259.04" cy="380.22" fill="#8b9ad9"></circle><circle r="5" cx="1281.42" cy="524.14" fill="#8b9ad9"></circle><circle r="5" cx="1291.19" cy="670.33" fill="#8b9ad9"></circle><circle r="5" cx="1419.48" cy="79.47" fill="#8b9ad9"></circle><circle r="5" cx="1430.09" cy="255.84" fill="#8b9ad9"></circle><circle r="5" cx="1450.85" cy="356.84" fill="#8b9ad9"></circle><circle r="5" cx="1427.87" cy="655.49" fill="#8b9ad9"></circle><circle r="5" cx="1547.16" cy="-105.49" fill="#8b9ad9"></circle><circle r="5" cx="1559.72" cy="46.75" fill="#8b9ad9"></circle><circle r="5" cx="1560.86" cy="206.72" fill="#8b9ad9"></circle><circle r="5" cx="1560.53" cy="384.47" fill="#8b9ad9"></circle><circle r="5" cx="1601.12" cy="542.1" fill="#8b9ad9"></circle><circle r="5" cx="1566.64" cy="708.03" fill="#8b9ad9"></circle></g><defs><mask id="SvgjsMask1021"><rect width="1440" height="560" fill="#ffffff"></rect></mask><radialGradient id="SvgjsRadialGradient1022"><stop stop-color="#ffffff" offset="0.1"></stop><stop stop-color="#1735b3" offset="0.2"></stop><stop stop-color="rgba(23, 53, 179, 0)" offset="1"></stop></radialGradient></defs></svg>