<svg xmlns="http://www.w3.org/2000/svg" version="1.1" xmlns:xlink="http://www.w3.org/1999/xlink" xmlns:svgjs="http://svgjs.dev/svgjs" width="1440" height="560" preserveAspectRatio="none" viewBox="0 0 1440 560"><g mask="url(&quot;#SvgjsMask1022&quot;)" fill="none"><path d="M149.33333333333331-37.333333333333336L-18.666666666666686-37.33333333333333-18.666666666666686 130.66666666666666 149.33333333333331 130.66666666666666z" fill="rgba(198, 75, 4, 1)" class="triangle-float2"></path><path d="M-70.22578786018299 17.408903859849964L8.64543468784666 165.74409946014967 156.98063028814636 86.87287691212 78.10940774011671-61.462318688179685z" fill="rgba(198, 75, 4, 1)" class="triangle-float3"></path><path d="M125.5781459559785-16.55184693870611L21.733554244498322-58.50778540128826 10.721942406365201 118.23707139722309z" fill="rgba(198, 75, 4, 1)" class="triangle-float1"></path><path d="M1464.544,263.08C1513.125,264.206,1562.008,248.796,1589.112,208.463C1619.562,163.15,1631.521,103.171,1603.481,56.328C1575.996,10.413,1517.935,-3.253,1464.544,0.366C1417.599,3.548,1378.025,32.261,1354.8,73.183C1331.905,113.524,1326.38,162.752,1349.589,202.913C1372.783,243.048,1418.201,262.006,1464.544,263.08" fill="rgba(198, 75, 4, 1)" class="triangle-float3"></path><path d="M1338.8556443057112 180.03309788588595L1491.1153525278683 109.03322991344837 1267.8557763332735 27.773389663728807z" fill="rgba(198, 75, 4, 1)" class="triangle-float1"></path><path d="M1468.588726790087 95.4443710957986L1355.7733896637287-60.144223666726226 1284.773521691291 92.11548455543098z" fill="rgba(198, 75, 4, 1)" class="triangle-float1"></path><path d="M94.59109614015 630.225787860183L173.46231868817966 481.8905922598833 25.127123087879966 403.01936971185364-53.7440994601497 551.3545653121533z" fill="rgba(198, 75, 4, 1)" class="triangle-float3"></path><path d="M12.413,500.22C27.492,500.945,43.438,495.755,50.809,482.581C58.053,469.634,52.927,454.151,45.311,441.419C37.946,429.106,26.72,419.464,12.413,418.388C-4.024,417.152,-22.57,421.193,-30.341,435.729C-37.86,449.793,-28.894,465.881,-20.082,479.173C-12.439,490.702,-1.403,499.556,12.413,500.22" fill="rgba(198, 75, 4, 1)" class="triangle-float3"></path><path d="M110.45625441719031 419.50499870560907L0.5140098710519396 398.13439122343607 23.42922092086161 573.7330617837301z" fill="rgba(198, 75, 4, 1)" class="triangle-float2"></path><path d="M1363.004568261239 594.9412060466219L1491.7375514376304 452.24246690146316 1328.043380553711 414.4506897716939z" fill="rgba(198, 75, 4, 1)" class="triangle-float1"></path><path d="M1376.715,579.789C1405.074,581.028,1429.061,559.665,1441.885,534.341C1453.535,511.336,1448.991,484.762,1436.168,462.389C1423.261,439.871,1402.669,420.42,1376.715,420.639C1351.052,420.856,1330.756,440.579,1318.977,463.38C1308.205,484.231,1310.282,508.024,1320.71,529.049C1332.707,553.236,1349.742,578.611,1376.715,579.789" fill="rgba(198, 75, 4, 1)" class="triangle-float2"></path><path d="M1359.843555790431 594.153077120313L1493.4782324879677 456.0339825133181 1331.2026936714042 412.55238293609466z" fill="rgba(198, 75, 4, 1)" class="triangle-float1"></path></g><defs><mask id="SvgjsMask1022"><rect width="1440" height="560" fill="#ffffff"></rect></mask><style>
                @keyframes float1 {
                    0%{transform: translate(0, 0)}
                    50%{transform: translate(-10px, 0)}
                    100%{transform: translate(0, 0)}
                }

                .triangle-float1 {
                    animation: float1 5s infinite;
                }

                @keyframes float2 {
                    0%{transform: translate(0, 0)}
                    50%{transform: translate(-5px, -5px)}
                    100%{transform: translate(0, 0)}
                }

                .triangle-float2 {
                    animation: float2 4s infinite;
                }

                @keyframes float3 {
                    0%{transform: translate(0, 0)}
                    50%{transform: translate(0, -10px)}
                    100%{transform: translate(0, 0)}
                }

                .triangle-float3 {
                    animation: float3 6s infinite;
                }
            </style></defs></svg>